<svg width="28" height="28" viewBox="0 0 28 28" fill="none" xmlns="http://www.w3.org/2000/svg">
<rect width="28" height="28" fill="#E5E5E5"/>
<g clip-path="url(#clip0_0_1)">
<rect width="1440" height="5953" transform="translate(-288 -5045)" fill="white"/>
<rect width="1440" height="5953" transform="translate(-288 -5045)" fill="#F5F3F4"/>
<path d="M-223 -343C-223 -354.046 -214.046 -363 -203 -363H399C410.046 -363 419 -354.046 419 -343V268C419 279.046 410.046 288 399 288H-203C-214.046 288 -223 279.046 -223 268V-343Z" fill="white"/>
<g filter="url(#filter0_d_0_1)">
<path d="M-33 3C-33 -3.62742 -27.6274 -9 -21 -9H217C223.627 -9 229 -3.62742 229 3V25C229 31.6274 223.627 37 217 37H-21C-27.6274 37 -33 31.6274 -33 25V3Z" fill="#2684FF"/>
</g>
<g clip-path="url(#clip1_0_1)">
<path d="M0.8794 0.291504H0.869029C0.743437 0.292157 0.619453 0.323319 0.505554 0.382858C0.391656 0.442396 0.290531 0.528906 0.209097 0.636472C0.127662 0.744038 0.0678389 0.870122 0.0337182 1.0061C-0.00040251 1.14208 -0.00801556 1.28474 0.0113997 1.42434L3.69703 26.5998C3.7914 27.2333 4.28088 27.7023 4.85229 27.7082H22.5369C22.7448 27.7105 22.9465 27.6291 23.1057 27.4786C23.2649 27.3282 23.371 27.1187 23.4049 26.888L27.0905 1.429C27.1099 1.28951 27.1023 1.14694 27.0683 1.01105C27.0342 0.87515 26.9745 0.749125 26.8932 0.641579C26.8118 0.534033 26.7108 0.447499 26.5971 0.387888C26.4833 0.328276 26.3594 0.296991 26.2339 0.296171H26.2225L0.8794 0.291504ZM16.4018 18.4857H10.7572L9.22859 9.5035H17.7696L16.4007 18.4868L16.4018 18.4857Z" fill="white"/>
</g>
</g>
<defs>
<filter id="filter0_d_0_1" x="-34" y="-9" width="264" height="48" filterUnits="userSpaceOnUse" color-interpolation-filters="sRGB">
<feFlood flood-opacity="0" result="BackgroundImageFix"/>
<feColorMatrix in="SourceAlpha" type="matrix" values="0 0 0 0 0 0 0 0 0 0 0 0 0 0 0 0 0 0 127 0" result="hardAlpha"/>
<feOffset dy="1"/>
<feGaussianBlur stdDeviation="0.5"/>
<feColorMatrix type="matrix" values="0 0 0 0 0 0 0 0 0 0 0 0 0 0 0 0 0 0 0.1 0"/>
<feBlend mode="normal" in2="BackgroundImageFix" result="effect1_dropShadow_0_1"/>
<feBlend mode="normal" in="SourceGraphic" in2="effect1_dropShadow_0_1" result="shape"/>
</filter>
<clipPath id="clip0_0_1">
<rect width="1440" height="5953" fill="white" transform="translate(-288 -5045)"/>
</clipPath>
<clipPath id="clip1_0_1">
<rect width="28" height="28" fill="white"/>
</clipPath>
</defs>
</svg>
